<svg width="27" height="27" viewBox="0 0 27 27" fill="none" xmlns="http://www.w3.org/2000/svg">
<circle cx="13.9414" cy="13.4355" r="13" fill="#ECF4FF"/>
<g clip-path="url(#clip0_53_1150)">
<path d="M13.9414 17.8792C13.799 17.8792 13.6618 17.8276 13.5548 17.7339C13.1508 17.3807 12.7614 17.0487 12.4177 16.7559L12.416 16.7544C11.4085 15.8959 10.5385 15.1544 9.93323 14.4241C9.25658 13.6076 8.94141 12.8334 8.94141 11.9877C8.94141 11.166 9.22316 10.408 9.73471 9.85309C10.2524 9.29164 10.9627 8.98242 11.735 8.98242C12.3122 8.98242 12.8409 9.16492 13.3062 9.52479C13.541 9.70645 13.7539 9.92877 13.9414 10.1881C14.129 9.92877 14.3418 9.70645 14.5767 9.52479C15.042 9.16492 15.5707 8.98242 16.1479 8.98242C16.9201 8.98242 17.6305 9.29164 18.1482 9.85309C18.6597 10.408 18.9414 11.166 18.9414 11.9877C18.9414 12.8334 18.6263 13.6076 17.9496 14.424C17.3443 15.1544 16.4744 15.8958 15.4671 16.7542C15.1229 17.0475 14.7328 17.38 14.3279 17.7341C14.221 17.8276 14.0837 17.8792 13.9414 17.8792ZM11.735 9.56821C11.1282 9.56821 10.5708 9.81036 10.1653 10.2501C9.75378 10.6965 9.52711 11.3136 9.52711 11.9877C9.52711 12.699 9.79147 13.3351 10.3842 14.0503C10.9571 14.7416 11.8092 15.4678 12.7958 16.3086L12.7977 16.3101C13.1426 16.6041 13.5336 16.9373 13.9406 17.2932C14.3499 16.9367 14.7416 16.6029 15.0872 16.3085C16.0737 15.4676 16.9258 14.7416 17.4987 14.0503C18.0913 13.3351 18.3557 12.699 18.3557 11.9877C18.3557 11.3136 18.129 10.6965 17.7175 10.2501C17.3121 9.81036 16.7546 9.56821 16.1479 9.56821C15.7034 9.56821 15.2953 9.7095 14.935 9.98813C14.6139 10.2365 14.3902 10.5506 14.259 10.7703C14.1916 10.8833 14.0729 10.9507 13.9414 10.9507C13.8099 10.9507 13.6912 10.8833 13.6238 10.7703C13.4927 10.5506 13.269 10.2365 12.9478 9.98813C12.5875 9.7095 12.1794 9.56821 11.735 9.56821Z" fill="black"/>
</g>
<defs>
<clipPath id="clip0_53_1150">
<rect width="10" height="9.99998" fill="white" transform="translate(8.94141 8.43555)"/>
</clipPath>
</defs>
</svg>
