<svg width="107" height="38" viewBox="0 0 107 38" fill="none" xmlns="http://www.w3.org/2000/svg">
<path d="M13.0507 0.294067H4.76953C4.20275 0.294067 3.72085 0.836737 3.63243 1.57416L0.28311 29.5571C0.216495 30.109 0.541084 30.6069 0.96604 30.6069H4.91963C5.48631 30.6069 5.9682 30.0645 6.05663 29.3257L6.95993 21.7784C7.04717 21.0394 7.53025 20.4968 8.09575 20.4968H10.7173C16.1724 20.4968 19.3207 17.0183 20.143 10.1251C20.5134 7.10925 20.1586 4.73977 19.087 3.08031C17.91 1.25788 15.8224 0.294067 13.0507 0.294067ZM14.0062 10.5145C13.5533 14.4302 11.2828 14.4302 9.08748 14.4302H7.83787L8.71453 7.11735C8.76665 6.67529 9.05719 6.34979 9.39629 6.34979H9.96898C11.4644 6.34979 12.8752 6.34979 13.6041 7.47301C14.0388 8.14329 14.1721 9.13893 14.0062 10.5145Z" fill="#283B82"/>
<path d="M37.8048 10.3883H33.8392C33.5015 10.3883 33.2097 10.7138 33.1574 11.1558L32.982 12.6174L32.7046 12.0876C31.8461 10.4456 29.9316 9.89685 28.0208 9.89685C23.6387 9.89685 19.8958 14.2705 19.1669 20.4058C18.7879 23.4663 19.3268 26.3927 20.6442 28.4335C21.8526 30.3099 23.5818 31.0918 25.6392 31.0918C29.1701 31.0918 31.1281 28.1001 31.1281 28.1001L30.9513 29.5522C30.8846 30.1074 31.2092 30.6053 31.6319 30.6053H35.2038C35.7717 30.6053 36.2512 30.0627 36.3409 29.324L38.4841 11.4382C38.5521 10.8877 38.2287 10.3883 37.8048 10.3883ZM32.2771 20.559C31.8946 23.5444 30.0963 25.5487 27.8031 25.5487C26.6515 25.5487 25.7311 25.0619 25.1402 24.1396C24.5541 23.2237 24.3313 21.9201 24.5178 20.468C24.875 17.5081 26.7036 15.4386 28.9617 15.4386C30.088 15.4386 31.0033 15.9316 31.6064 16.8617C32.2107 17.8016 32.4502 19.1133 32.2771 20.559Z" fill="#283B82"/>
<path d="M58.9252 10.3884H54.9403C54.56 10.3884 54.2028 10.6374 53.9873 11.0539L48.491 21.7225L46.1613 11.4703C46.0148 10.8288 45.5656 10.3884 45.057 10.3884H41.141C40.6651 10.3884 40.3346 11.0011 40.4859 11.5915L44.8754 28.5661L40.7487 36.2429C40.424 36.8475 40.751 37.6792 41.3118 37.6792H45.292C45.6697 37.6792 46.0234 37.4365 46.2376 37.028L59.4919 11.8166C59.8092 11.2133 59.4836 10.3884 58.9252 10.3884Z" fill="#283B82"/>
<path d="M72.1191 0.294067H63.8366C63.2712 0.294067 62.7892 0.836737 62.7007 1.57416L59.3514 29.5571C59.285 30.109 59.6094 30.6069 60.0321 30.6069H64.2823C64.6769 30.6069 65.015 30.2273 65.0766 29.7103L66.0271 21.7784C66.1142 21.0394 66.5975 20.4968 67.1629 20.4968H69.7834C75.2395 20.4968 78.3867 17.0183 79.21 10.1251C79.5819 7.10925 79.2247 4.73977 78.153 3.08031C76.9772 1.25788 74.8908 0.294067 72.1191 0.294067ZM73.0746 10.5145C72.6228 14.4302 70.3526 14.4302 68.1558 14.4302H66.9075L67.7855 7.11735C67.8375 6.67529 68.1255 6.34979 68.4658 6.34979H69.0386C70.533 6.34979 71.9447 6.34979 72.6736 7.47301C73.1084 8.14329 73.2403 9.13893 73.0746 10.5145Z" fill="#469BDB"/>
<path d="M96.8721 10.3883H92.9089C92.5686 10.3883 92.279 10.7138 92.2283 11.1558L92.0527 12.6174L91.7743 12.0876C90.9158 10.4456 89.0025 9.89685 87.0918 9.89685C82.7094 9.89685 78.968 14.2705 78.2389 20.4058C77.8612 23.4663 78.3975 26.3927 79.7151 28.4335C80.926 30.3099 82.6526 31.0918 84.7098 31.0918C88.2408 31.0918 90.1988 28.1001 90.1988 28.1001L90.0219 29.5522C89.9555 30.1074 90.2799 30.6053 90.7051 30.6053H94.2759C94.8414 30.6053 95.3234 30.0627 95.4118 29.324L97.5563 11.4382C97.6215 10.8877 97.2971 10.3883 96.8721 10.3883ZM91.3443 20.559C90.964 23.5444 89.1634 25.5487 86.8702 25.5487C85.7209 25.5487 84.7983 25.0619 84.2073 24.1396C83.6214 23.2237 83.4009 21.9201 83.5851 20.468C83.9446 17.5081 85.7707 15.4386 88.0291 15.4386C89.1551 15.4386 90.0704 15.9316 90.6735 16.8617C91.2801 17.8016 91.5199 19.1133 91.3443 20.559Z" fill="#469BDB"/>
<path d="M101.547 1.06178L98.1482 29.5571C98.0817 30.109 98.4061 30.6069 98.8288 30.6069H102.246C102.814 30.6069 103.296 30.0645 103.383 29.3257L106.735 1.34443C106.801 0.79211 106.477 0.292725 106.054 0.292725H102.228C101.89 0.294058 101.599 0.619989 101.547 1.06178Z" fill="#469BDB"/>
</svg>
