<svg width="40" height="41" viewBox="0 0 40 41" fill="none" xmlns="http://www.w3.org/2000/svg">
<circle cx="20" cy="20.5615" r="20" fill="#F4F6F6"/>
<g clip-path="url(#clip0_42_1187)">
<path d="M24.4449 19.9372L17.3247 12.8171C17.16 12.6523 16.9402 12.5615 16.7058 12.5615C16.4714 12.5615 16.2516 12.6523 16.0869 12.8171L15.5625 13.3414C15.2213 13.6829 15.2213 14.2381 15.5625 14.5792L21.5415 20.5582L15.5559 26.5438C15.3912 26.7087 15.3003 26.9284 15.3003 27.1626C15.3003 27.3972 15.3912 27.6169 15.5559 27.7818L16.0803 28.3059C16.2451 28.4707 16.4648 28.5615 16.6992 28.5615C16.9336 28.5615 17.1534 28.4707 17.3181 28.3059L24.4449 21.1793C24.61 21.014 24.7007 20.7933 24.7001 20.5586C24.7007 20.323 24.61 20.1024 24.4449 19.9372Z" fill="#666666"/>
</g>
<defs>
<clipPath id="clip0_42_1187">
<rect width="16" height="16" fill="white" transform="translate(12 12.5615)"/>
</clipPath>
</defs>
</svg>
