<svg width="97" height="42" viewBox="0 0 97 42" fill="none" xmlns="http://www.w3.org/2000/svg">
<g clip-path="url(#clip0_23_2172)">
<path d="M7.13566 16.5453C7.13566 15.4983 7.99483 15.0954 9.41808 15.0954C11.4585 15.0954 14.036 15.7131 16.0766 16.8139V10.5041C13.8481 9.61814 11.6465 9.26908 9.41808 9.26908C3.96746 9.26908 0.342773 12.1152 0.342773 16.8677C0.342773 24.2779 10.5455 23.0967 10.5455 26.2919C10.5455 27.5267 9.4717 27.9296 7.96802 27.9296C5.73959 27.9296 2.89346 27.0166 0.638034 25.7816V32.1718C3.1351 33.2458 5.65898 33.7021 7.96802 33.7021C13.5527 33.7021 17.3922 30.9368 17.3922 26.1307C17.3654 18.1296 7.13566 19.5524 7.13566 16.5453V16.5453ZM25.2859 3.89926L18.7347 5.29533L18.7079 26.8018C18.7079 30.7757 21.6882 33.7021 25.662 33.7021C27.8636 33.7021 29.4745 33.2994 30.3605 32.8161V27.3657C29.5015 27.7148 25.2591 28.9498 25.2591 24.9761V15.4445H30.3605V9.72556H25.2591L25.2859 3.89926V3.89926ZM38.7108 11.7123L38.2812 9.72556H32.4817V33.2188H39.1941V17.2972C40.7781 15.2298 43.4631 15.6057 44.2955 15.9009V9.72556C43.4363 9.40331 40.2949 8.8126 38.7108 11.7123V11.7123ZM45.9332 9.72556H52.6725V33.2188H45.9332V9.72556V9.72556ZM45.9332 7.68498L52.6725 6.2351V0.784668L45.9332 2.20774V7.68479V7.68498ZM66.688 9.26908C64.0567 9.26908 62.3651 10.5041 61.4256 11.3635L61.0763 9.69876H55.1696V41.0051L61.8818 39.5822L61.9088 31.9838C62.8754 32.6819 64.2983 33.6753 66.6612 33.6753C71.4673 33.6753 75.8437 29.809 75.8437 21.2978C75.8169 13.5113 71.3866 9.26908 66.688 9.26908V9.26908ZM65.0771 27.7684C63.4929 27.7684 62.553 27.2047 61.9088 26.5065L61.8818 16.5453C62.58 15.7667 63.5466 15.2298 65.0771 15.2298C67.5203 15.2298 69.2118 17.9683 69.2118 21.4856C69.2118 25.0835 67.5471 27.7684 65.0771 27.7684V27.7684ZM97.0011 21.5662C97.0011 14.6927 93.6717 9.26908 87.3085 9.26908C80.9181 9.26908 77.0517 14.6929 77.0517 21.5126C77.0517 29.5941 81.6164 33.6753 88.1674 33.6753C91.3626 33.6753 93.7791 32.9504 95.6048 31.9302V26.5602C93.7793 27.4731 91.6849 28.037 89.0268 28.037C86.4223 28.037 84.1133 27.1241 83.818 23.9559H96.9475C96.9475 23.6066 97.0011 22.2105 97.0011 21.5662ZM83.7374 19.0155C83.7374 15.9815 85.5901 14.7195 87.2817 14.7195C88.9194 14.7195 90.6647 15.9815 90.6647 19.0155H83.7374Z" fill="#154444" fill-opacity="0.86"/>
</g>
<defs>
<clipPath id="clip0_23_2172">
<rect width="96.6583" height="40.4032" fill="white" transform="translate(0.342773 0.78418)"/>
</clipPath>
</defs>
</svg>
