<svg width="40" height="41" viewBox="0 0 40 41" fill="none" xmlns="http://www.w3.org/2000/svg">
<circle cx="20" cy="20.5615" r="20" fill="#F4F6F6"/>
<g clip-path="url(#clip0_53_1194)">
<path d="M15.5551 21.1858L22.6753 28.3059C22.84 28.4707 23.0598 28.5615 23.2942 28.5615C23.5286 28.5615 23.7484 28.4707 23.9131 28.3059L24.4375 27.7817C24.7787 27.4401 24.7787 26.8849 24.4375 26.5438L18.4585 20.5648L24.4441 14.5792C24.6088 14.4144 24.6997 14.1947 24.6997 13.9604C24.6997 13.7259 24.6088 13.5062 24.4441 13.3412L23.9197 12.8171C23.7549 12.6523 23.5352 12.5615 23.3008 12.5615C23.0664 12.5615 22.8466 12.6523 22.6819 12.8171L15.5551 19.9437C15.39 20.109 15.2993 20.3298 15.2999 20.5645C15.2993 20.8 15.39 21.0206 15.5551 21.1858Z" fill="#D1CECE"/>
</g>
<defs>
<clipPath id="clip0_53_1194">
<rect width="16" height="16" fill="white" transform="matrix(-1 0 0 -1 28 28.5615)"/>
</clipPath>
</defs>
</svg>
