<svg width="27" height="27" viewBox="0 0 27 27" fill="none" xmlns="http://www.w3.org/2000/svg">
<circle cx="13.9414" cy="13.4355" r="13" fill="#ECF4FF"/>
<g clip-path="url(#clip0_53_1155)">
<path d="M16.8711 14.9199C16.2923 14.9199 15.7779 15.2012 15.4575 15.6342L12.6983 14.2241C12.7446 14.0669 12.7695 13.9006 12.7695 13.7285C12.7695 13.4955 12.7238 13.273 12.6411 13.0693L15.5329 11.3318C15.8556 11.7105 16.3357 11.9512 16.8711 11.9512C17.8404 11.9512 18.6289 11.1626 18.6289 10.1934C18.6289 9.2241 17.8404 8.43555 16.8711 8.43555C15.9018 8.43555 15.1133 9.2241 15.1133 10.1934C15.1133 10.4174 15.1555 10.6317 15.2322 10.8289L12.3332 12.5707C12.0108 12.2032 11.5379 11.9707 11.0117 11.9707C10.0425 11.9707 9.25391 12.7593 9.25391 13.7285C9.25391 14.6978 10.0425 15.4863 11.0117 15.4863C11.6 15.4863 12.1217 15.1958 12.441 14.7507L15.1921 16.1566C15.1409 16.3213 15.1133 16.4964 15.1133 16.6777C15.1133 17.647 15.9018 18.4355 16.8711 18.4355C17.8404 18.4355 18.6289 17.647 18.6289 16.6777C18.6289 15.7085 17.8404 14.9199 16.8711 14.9199ZM16.8711 9.02148C17.5173 9.02148 18.043 9.54719 18.043 10.1934C18.043 10.8395 17.5173 11.3652 16.8711 11.3652C16.2249 11.3652 15.6992 10.8395 15.6992 10.1934C15.6992 9.54719 16.2249 9.02148 16.8711 9.02148ZM11.0117 14.9004C10.3655 14.9004 9.83984 14.3747 9.83984 13.7285C9.83984 13.0823 10.3655 12.5566 11.0117 12.5566C11.6579 12.5566 12.1836 13.0823 12.1836 13.7285C12.1836 14.3747 11.6579 14.9004 11.0117 14.9004ZM16.8711 17.8496C16.2249 17.8496 15.6992 17.3239 15.6992 16.6777C15.6992 16.0316 16.2249 15.5059 16.8711 15.5059C17.5173 15.5059 18.043 16.0316 18.043 16.6777C18.043 17.3239 17.5173 17.8496 16.8711 17.8496Z" fill="black"/>
</g>
<defs>
<clipPath id="clip0_53_1155">
<rect width="10" height="10" fill="white" transform="translate(8.94141 8.43555)"/>
</clipPath>
</defs>
</svg>
