<svg width="28" height="29" viewBox="0 0 28 29" fill="none" xmlns="http://www.w3.org/2000/svg">
<circle cx="14.001" cy="14.4663" r="14" fill="#FFB624"/>
<g clip-path="url(#clip0_13_1440)">
<path d="M21.7831 13.9402L17.0217 9.17889C16.7312 8.88839 16.2601 8.88839 15.9696 9.17889C15.6791 9.46945 15.6791 9.94047 15.9696 10.231L19.4609 13.7223H6.74494C6.33409 13.7223 6.00098 14.0555 6.00098 14.4663C6.00098 14.8771 6.33409 15.2103 6.74494 15.2103H19.4609L15.9697 18.7016C15.6792 18.9921 15.6792 19.4631 15.9697 19.7537C16.115 19.8989 16.3054 19.9716 16.4958 19.9716C16.6862 19.9716 16.8766 19.8989 17.0219 19.7537L21.7831 14.9924C22.0736 14.7018 22.0736 14.2308 21.7831 13.9402Z" fill="white"/>
</g>
<defs>
<clipPath id="clip0_13_1440">
<rect width="16" height="16" fill="white" transform="translate(6.00098 6.46631)"/>
</clipPath>
</defs>
</svg>
