<svg width="20" height="21" viewBox="0 0 20 21" fill="none" xmlns="http://www.w3.org/2000/svg">
<g clip-path="url(#clip0_5_2348)">
<path d="M10.001 20.9253C15.5238 20.9253 20.001 16.4481 20.001 10.9253C20.001 5.40245 15.5238 0.925293 10.001 0.925293C4.47813 0.925293 0.000976562 5.40245 0.000976562 10.9253C0.000976562 16.4481 4.47813 20.9253 10.001 20.9253Z" fill="white"/>
<path d="M12.5149 11.3168H10.7305V17.8539H8.027V11.3168H6.74121V9.0194H8.027V7.53271C8.027 6.46957 8.532 4.80481 10.7545 4.80481L12.7571 4.81319V7.04321H11.3041C11.0658 7.04321 10.7307 7.16229 10.7307 7.66944V9.02154H12.751L12.5149 11.3168Z" fill="#305F64"/>
</g>
<defs>
<clipPath id="clip0_5_2348">
<rect width="20" height="20" fill="white" transform="translate(0.000976562 0.925293)"/>
</clipPath>
</defs>
</svg>
