<svg width="17" height="17" viewBox="0 0 17 17" fill="none" xmlns="http://www.w3.org/2000/svg">
<g clip-path="url(#clip0_78_984)">
<path d="M16.8909 6.73074C16.7862 6.40676 16.4988 6.17665 16.1588 6.14601L11.5408 5.72669L9.7147 1.45253C9.58006 1.13929 9.27341 0.936523 8.9327 0.936523C8.59199 0.936523 8.28534 1.13929 8.1507 1.45326L6.3246 5.72669L1.70583 6.14601C1.36646 6.17738 1.07984 6.40676 0.974486 6.73074C0.869137 7.05472 0.96643 7.41008 1.22315 7.63408L4.71384 10.6954L3.68452 15.2296C3.6092 15.563 3.7386 15.9076 4.01521 16.1076C4.1639 16.215 4.33785 16.2697 4.51327 16.2697C4.66452 16.2697 4.81455 16.2289 4.9492 16.1483L8.9327 13.7675L12.9147 16.1483C13.2061 16.3236 13.5734 16.3076 13.8495 16.1076C14.1262 15.907 14.2555 15.5623 14.1801 15.2296L13.1508 10.6954L16.6415 7.63469C16.8982 7.41008 16.9963 7.05533 16.8909 6.73074Z" fill="#FFB624"/>
</g>
<defs>
<clipPath id="clip0_78_984">
<rect width="16" height="16" fill="white" transform="translate(0.932617 0.592773)"/>
</clipPath>
</defs>
</svg>
