<svg width="25" height="25" viewBox="0 0 25 25" fill="none" xmlns="http://www.w3.org/2000/svg">
<g clip-path="url(#clip0_72_794)">
<path d="M24.5566 7.99097H1.30664C1.09918 7.99097 0.931641 7.82343 0.931641 7.61597V6.11523C0.931641 5.90778 1.09918 5.74023 1.30664 5.74023H24.5566C24.7641 5.74023 24.9316 5.90778 24.9316 6.11523V7.61597C24.9316 7.82343 24.7641 7.99097 24.5566 7.99097ZM1.68164 7.24097H24.1816V6.49023H1.68164V7.24097Z" fill="#666666"/>
<path d="M1.68164 19.6226C1.47418 19.6226 1.30664 19.455 1.30664 19.2476V7.68262C1.30664 7.47516 1.47418 7.30762 1.68164 7.30762C1.8891 7.30762 2.05664 7.47516 2.05664 7.68262V19.2476C2.05664 19.455 1.8891 19.6226 1.68164 19.6226Z" fill="#666666"/>
<path d="M2.80664 19.6226C2.59918 19.6226 2.43164 19.455 2.43164 19.2476V7.68262C2.43164 7.47516 2.59918 7.30762 2.80664 7.30762C3.0141 7.30762 3.18164 7.47516 3.18164 7.68262V19.2476C3.18164 19.455 3.0141 19.6226 2.80664 19.6226Z" fill="#666666"/>
<path d="M23.0566 19.6226C22.8492 19.6226 22.6816 19.455 22.6816 19.2476V7.68262C22.6816 7.47516 22.8492 7.30762 23.0566 7.30762C23.2641 7.30762 23.4316 7.47516 23.4316 7.68262V19.2476C23.4316 19.455 23.2641 19.6226 23.0566 19.6226Z" fill="#666666"/>
<path d="M24.1816 19.6226C23.9742 19.6226 23.8066 19.455 23.8066 19.2476V7.68262C23.8066 7.47516 23.9742 7.30762 24.1816 7.30762C24.3891 7.30762 24.5566 7.47516 24.5566 7.68262V19.2476C24.5566 19.455 24.3891 19.6226 24.1816 19.6226Z" fill="#666666"/>
<path d="M2.80664 19.623H1.68164C1.47418 19.623 1.30664 19.4555 1.30664 19.248C1.30664 19.0406 1.47418 18.873 1.68164 18.873H2.80664C3.0141 18.873 3.18164 19.0406 3.18164 19.248C3.18164 19.4555 3.0141 19.623 2.80664 19.623Z" fill="#666666"/>
<path d="M24.1816 19.623H23.0566C22.8492 19.623 22.6816 19.4555 22.6816 19.248C22.6816 19.0406 22.8492 18.873 23.0566 18.873H24.1816C24.3891 18.873 24.5566 19.0406 24.5566 19.248C24.5566 19.4555 24.3891 19.623 24.1816 19.623Z" fill="#666666"/>
<path d="M23.0566 13.2451H2.80664C2.59918 13.2451 2.43164 13.0774 2.43164 12.8701C2.43164 12.6627 2.59918 12.4951 2.80664 12.4951H23.0566C23.2641 12.4951 23.4316 12.6627 23.4316 12.8701C23.4316 13.0774 23.2641 13.2451 23.0566 13.2451Z" fill="#666666"/>
<path d="M23.0566 14.3711H2.80664C2.59918 14.3711 2.43164 14.2034 2.43164 13.9961C2.43164 13.7886 2.59918 13.6211 2.80664 13.6211H23.0566C23.2641 13.6211 23.4316 13.7886 23.4316 13.9961C23.4316 14.2034 23.2641 14.3711 23.0566 14.3711Z" fill="#666666"/>
<path d="M4.30566 13.2461C4.09821 13.2461 3.93066 13.0784 3.93066 12.8711C3.93066 11.8371 4.77148 10.9961 5.8053 10.9961C6.01257 10.9961 6.1803 11.1636 6.1803 11.3711C6.1803 11.5784 6.01257 11.7461 5.8053 11.7461C5.18549 11.7461 4.68066 12.2507 4.68066 12.8711C4.68066 13.0784 4.51294 13.2461 4.30566 13.2461Z" fill="#666666"/>
<path d="M8.05676 13.2461C7.8493 13.2461 7.68176 13.0784 7.68176 12.8711C7.68176 12.2507 7.17694 11.7461 6.55713 11.7461C6.34985 11.7461 6.18213 11.5784 6.18213 11.3711C6.18213 11.1636 6.34985 10.9961 6.55713 10.9961C7.59094 10.9961 8.43176 11.8371 8.43176 12.8711C8.43176 13.0784 8.26422 13.2461 8.05676 13.2461Z" fill="#666666"/>
<path d="M4.68066 12.2542C4.47321 12.2542 4.30566 12.0865 4.30566 11.8792V9.87109C4.30566 9.66364 4.47321 9.49609 4.68066 9.49609C4.88794 9.49609 5.05566 9.66364 5.05566 9.87109V11.8792C5.05566 12.0865 4.88794 12.2542 4.68066 12.2542Z" fill="#666666"/>
<path d="M7.68018 12.2542C7.47272 12.2542 7.30518 12.0865 7.30518 11.8792V9.87109C7.30518 9.66364 7.47272 9.49609 7.68018 9.49609C7.88745 9.49609 8.05518 9.66364 8.05518 9.87109V11.8792C8.05518 12.0865 7.88745 12.2542 7.68018 12.2542Z" fill="#666666"/>
<path d="M5.43164 10.6218C5.22418 10.6218 5.05664 10.4541 5.05664 10.2468V9.12109C5.05664 8.91364 5.22418 8.74609 5.43164 8.74609C5.6391 8.74609 5.80664 8.91364 5.80664 9.12109V10.2468C5.80664 10.4541 5.6391 10.6218 5.43164 10.6218Z" fill="#666666"/>
<path d="M6.93164 9.49609H5.43164C5.22418 9.49609 5.05664 9.32837 5.05664 9.12109C5.05664 8.91364 5.22418 8.74609 5.43164 8.74609H6.93164C7.1391 8.74609 7.30664 8.91364 7.30664 9.12109C7.30664 9.32837 7.1391 9.49609 6.93164 9.49609Z" fill="#666666"/>
<path d="M6.93164 10.6218C6.72418 10.6218 6.55664 10.4541 6.55664 10.2468V9.12109C6.55664 8.91364 6.72418 8.74609 6.93164 8.74609C7.1391 8.74609 7.30664 8.91364 7.30664 9.12109V10.2468C7.30664 10.4541 7.1391 10.6218 6.93164 10.6218Z" fill="#666666"/>
<path d="M5.4314 10.2461H4.68066C4.47321 10.2461 4.30566 10.0784 4.30566 9.87109C4.30566 9.66364 4.47321 9.49609 4.68066 9.49609H5.4314C5.63885 9.49609 5.8064 9.66364 5.8064 9.87109C5.8064 10.0784 5.63885 10.2461 5.4314 10.2461Z" fill="#666666"/>
<path d="M7.68018 10.2461H6.93164C6.72418 10.2461 6.55664 10.0784 6.55664 9.87109C6.55664 9.66364 6.72418 9.49609 6.93164 9.49609H7.68018C7.88745 9.49609 8.05518 9.66364 8.05518 9.87109C8.05518 10.0784 7.88745 10.2461 7.68018 10.2461Z" fill="#666666"/>
<path d="M6.55713 11.7461H5.80566C5.59821 11.7461 5.43066 11.5784 5.43066 11.3711C5.43066 11.1636 5.59821 10.9961 5.80566 10.9961H6.55713C6.76459 10.9961 6.93213 11.1636 6.93213 11.3711C6.93213 11.5784 6.76459 11.7461 6.55713 11.7461Z" fill="#666666"/>
<path d="M9.18066 13.2461C8.97321 13.2461 8.80566 13.0784 8.80566 12.8711C8.80566 11.8371 9.64648 10.9961 10.6803 10.9961C10.8876 10.9961 11.0553 11.1636 11.0553 11.3711C11.0553 11.5784 10.8876 11.7461 10.6803 11.7461C10.0605 11.7461 9.55566 12.2507 9.55566 12.8711C9.55566 13.0784 9.38794 13.2461 9.18066 13.2461Z" fill="#666666"/>
<path d="M12.9318 13.2461C12.7243 13.2461 12.5568 13.0784 12.5568 12.8711C12.5568 12.2507 12.0519 11.7461 11.4321 11.7461C11.2249 11.7461 11.0571 11.5784 11.0571 11.3711C11.0571 11.1636 11.2249 10.9961 11.4321 10.9961C12.4659 10.9961 13.3068 11.8371 13.3068 12.8711C13.3068 13.0784 13.1392 13.2461 12.9318 13.2461Z" fill="#666666"/>
<path d="M9.55566 12.2542C9.34821 12.2542 9.18066 12.0865 9.18066 11.8792V9.87109C9.18066 9.66364 9.34821 9.49609 9.55566 9.49609C9.76294 9.49609 9.93066 9.66364 9.93066 9.87109V11.8792C9.93066 12.0865 9.76294 12.2542 9.55566 12.2542Z" fill="#666666"/>
<path d="M12.5552 12.2542C12.3477 12.2542 12.1802 12.0865 12.1802 11.8792V9.87109C12.1802 9.66364 12.3477 9.49609 12.5552 9.49609C12.7625 9.49609 12.9302 9.66364 12.9302 9.87109V11.8792C12.9302 12.0865 12.7625 12.2542 12.5552 12.2542Z" fill="#666666"/>
<path d="M10.3066 10.6218C10.0992 10.6218 9.93164 10.4541 9.93164 10.2468V9.12109C9.93164 8.91364 10.0992 8.74609 10.3066 8.74609C10.5141 8.74609 10.6816 8.91364 10.6816 9.12109V10.2468C10.6816 10.4541 10.5141 10.6218 10.3066 10.6218Z" fill="#666666"/>
<path d="M11.8066 9.49609H10.3066C10.0992 9.49609 9.93164 9.32837 9.93164 9.12109C9.93164 8.91364 10.0992 8.74609 10.3066 8.74609H11.8066C12.0141 8.74609 12.1816 8.91364 12.1816 9.12109C12.1816 9.32837 12.0141 9.49609 11.8066 9.49609Z" fill="#666666"/>
<path d="M11.8066 10.6218C11.5992 10.6218 11.4316 10.4541 11.4316 10.2468V9.12109C11.4316 8.91364 11.5992 8.74609 11.8066 8.74609C12.0141 8.74609 12.1816 8.91364 12.1816 9.12109V10.2468C12.1816 10.4541 12.0141 10.6218 11.8066 10.6218Z" fill="#666666"/>
<path d="M10.3064 10.2461H9.55566C9.34821 10.2461 9.18066 10.0784 9.18066 9.87109C9.18066 9.66364 9.34821 9.49609 9.55566 9.49609H10.3064C10.5139 9.49609 10.6814 9.66364 10.6814 9.87109C10.6814 10.0784 10.5139 10.2461 10.3064 10.2461Z" fill="#666666"/>
<path d="M12.5552 10.2461H11.8066C11.5992 10.2461 11.4316 10.0784 11.4316 9.87109C11.4316 9.66364 11.5992 9.49609 11.8066 9.49609H12.5552C12.7625 9.49609 12.9302 9.66364 12.9302 9.87109C12.9302 10.0784 12.7625 10.2461 12.5552 10.2461Z" fill="#666666"/>
<path d="M11.4321 11.7461H10.6807C10.4732 11.7461 10.3057 11.5784 10.3057 11.3711C10.3057 11.1636 10.4732 10.9961 10.6807 10.9961H11.4321C11.6396 10.9961 11.8071 11.1636 11.8071 11.3711C11.8071 11.5784 11.6396 11.7461 11.4321 11.7461Z" fill="#666666"/>
<path d="M12.9395 18.8718C12.732 18.8718 12.5645 18.7041 12.5645 18.4968C12.5645 17.8761 13.0696 17.3711 13.6902 17.3711C13.8976 17.3711 14.0652 17.5386 14.0652 17.7461C14.0652 17.9534 13.8976 18.1211 13.6902 18.1211C13.4829 18.1211 13.3145 18.2894 13.3145 18.4968C13.3145 18.7041 13.1465 18.8718 12.9395 18.8718Z" fill="#666666"/>
<path d="M16.6904 18.8721C16.4832 18.8721 16.3154 18.7043 16.3154 18.4971C16.3154 18.29 16.1475 18.1221 15.9404 18.1221C15.7332 18.1221 15.5654 17.9543 15.5654 17.7471C15.5654 17.5396 15.7332 17.3721 15.9404 17.3721C16.5608 17.3721 17.0654 17.8767 17.0654 18.4971C17.0654 18.7043 16.8979 18.8721 16.6904 18.8721Z" fill="#666666"/>
<path d="M16.6906 19.623H12.9395C12.732 19.623 12.5645 19.4555 12.5645 19.248C12.5645 19.0406 12.732 18.873 12.9395 18.873H16.6909C16.8984 18.873 17.0659 19.0406 17.0659 19.248C17.0659 19.4555 16.898 19.623 16.6906 19.623Z" fill="#666666"/>
<path d="M15.9705 18.1211H13.6597C13.4524 18.1211 13.2847 17.9534 13.2847 17.7461C13.2847 17.5386 13.4524 17.3711 13.6597 17.3711H15.9705C16.1779 17.3711 16.3455 17.5386 16.3455 17.7461C16.3455 17.9534 16.1779 18.1211 15.9705 18.1211Z" fill="#666666"/>
<path d="M13.6895 18.1213C13.482 18.1213 13.3145 17.9536 13.3145 17.7463V15.4971C13.3145 15.2896 13.482 15.1221 13.6895 15.1221C13.8969 15.1221 14.0645 15.2896 14.0645 15.4971V17.7463C14.0645 17.9536 13.8969 18.1213 13.6895 18.1213Z" fill="#666666"/>
<path d="M15.9409 18.1221C15.7336 18.1221 15.5659 17.9543 15.5659 17.7471V15.4971C15.5659 15.2896 15.7336 15.1221 15.9409 15.1221C16.1484 15.1221 16.3159 15.2896 16.3159 15.4971V17.7471C16.3159 17.9543 16.1484 18.1221 15.9409 18.1221Z" fill="#666666"/>
<path d="M12.9395 19.6228C12.732 19.6228 12.5645 19.4553 12.5645 19.2478V18.4971C12.5645 18.2896 12.732 18.1221 12.9395 18.1221C13.1469 18.1221 13.3145 18.2896 13.3145 18.4971V19.2478C13.3145 19.4553 13.1465 19.6228 12.9395 19.6228Z" fill="#666666"/>
<path d="M16.6904 19.6228C16.4832 19.6228 16.3154 19.4553 16.3154 19.2478V18.4971C16.3154 18.2896 16.4832 18.1221 16.6904 18.1221C16.8979 18.1221 17.0654 18.2896 17.0654 18.4971V19.2478C17.0654 19.4553 16.8979 19.6228 16.6904 19.6228Z" fill="#666666"/>
<path d="M15.9409 15.8721H13.6895C13.482 15.8721 13.3145 15.7043 13.3145 15.4971C13.3145 15.2896 13.482 15.1221 13.6895 15.1221H15.9409C16.1484 15.1221 16.3159 15.2896 16.3159 15.4971C16.3159 15.7043 16.1484 15.8721 15.9409 15.8721Z" fill="#666666"/>
<path d="M16.3156 16.9971H13.3145C13.107 16.9971 12.9395 16.8293 12.9395 16.6221C12.9395 16.4146 13.107 16.2471 13.3145 16.2471H16.3156C16.523 16.2471 16.6906 16.4146 16.6906 16.6221C16.6906 16.8293 16.523 16.9971 16.3156 16.9971Z" fill="#666666"/>
<path d="M17.8145 18.8718C17.607 18.8718 17.4395 18.7041 17.4395 18.4968C17.4395 17.8761 17.9446 17.3711 18.5652 17.3711C18.7726 17.3711 18.9402 17.5386 18.9402 17.7461C18.9402 17.9534 18.7726 18.1211 18.5652 18.1211C18.3579 18.1211 18.1895 18.2894 18.1895 18.4968C18.1895 18.7041 18.0215 18.8718 17.8145 18.8718Z" fill="#666666"/>
<path d="M21.5654 18.8721C21.3582 18.8721 21.1904 18.7043 21.1904 18.4971C21.1904 18.29 21.0225 18.1221 20.8154 18.1221C20.6082 18.1221 20.4404 17.9543 20.4404 17.7471C20.4404 17.5396 20.6082 17.3721 20.8154 17.3721C21.4358 17.3721 21.9404 17.8767 21.9404 18.4971C21.9404 18.7043 21.7729 18.8721 21.5654 18.8721Z" fill="#666666"/>
<path d="M21.5656 19.623H17.8145C17.607 19.623 17.4395 19.4555 17.4395 19.248C17.4395 19.0406 17.607 18.873 17.8145 18.873H21.5659C21.7734 18.873 21.9409 19.0406 21.9409 19.248C21.9409 19.4555 21.773 19.623 21.5656 19.623Z" fill="#666666"/>
<path d="M20.8455 18.1211H18.5347C18.3274 18.1211 18.1597 17.9534 18.1597 17.7461C18.1597 17.5386 18.3274 17.3711 18.5347 17.3711H20.8455C21.0529 17.3711 21.2205 17.5386 21.2205 17.7461C21.2205 17.9534 21.0529 18.1211 20.8455 18.1211Z" fill="#666666"/>
<path d="M18.5645 18.1213C18.357 18.1213 18.1895 17.9536 18.1895 17.7463V15.4971C18.1895 15.2896 18.357 15.1221 18.5645 15.1221C18.7719 15.1221 18.9395 15.2896 18.9395 15.4971V17.7463C18.9395 17.9536 18.7719 18.1213 18.5645 18.1213Z" fill="#666666"/>
<path d="M20.8159 18.1221C20.6086 18.1221 20.4409 17.9543 20.4409 17.7471V15.4971C20.4409 15.2896 20.6086 15.1221 20.8159 15.1221C21.0234 15.1221 21.1909 15.2896 21.1909 15.4971V17.7471C21.1909 17.9543 21.0234 18.1221 20.8159 18.1221Z" fill="#666666"/>
<path d="M17.8145 19.6228C17.607 19.6228 17.4395 19.4553 17.4395 19.2478V18.4971C17.4395 18.2896 17.607 18.1221 17.8145 18.1221C18.0219 18.1221 18.1895 18.2896 18.1895 18.4971V19.2478C18.1895 19.4553 18.0215 19.6228 17.8145 19.6228Z" fill="#666666"/>
<path d="M21.5654 19.6228C21.3582 19.6228 21.1904 19.4553 21.1904 19.2478V18.4971C21.1904 18.2896 21.3582 18.1221 21.5654 18.1221C21.7729 18.1221 21.9404 18.2896 21.9404 18.4971V19.2478C21.9404 19.4553 21.7729 19.6228 21.5654 19.6228Z" fill="#666666"/>
<path d="M20.8159 15.8721H18.5645C18.357 15.8721 18.1895 15.7043 18.1895 15.4971C18.1895 15.2896 18.357 15.1221 18.5645 15.1221H20.8159C21.0234 15.1221 21.1909 15.2896 21.1909 15.4971C21.1909 15.7043 21.0234 15.8721 20.8159 15.8721Z" fill="#666666"/>
<path d="M21.1906 16.9971H18.1895C17.982 16.9971 17.8145 16.8293 17.8145 16.6221C17.8145 16.4146 17.982 16.2471 18.1895 16.2471H21.1906C21.398 16.2471 21.5656 16.4146 21.5656 16.6221C21.5656 16.8293 21.398 16.9971 21.1906 16.9971Z" fill="#666666"/>
</g>
<defs>
<clipPath id="clip0_72_794">
<rect width="24" height="24" fill="white" transform="translate(0.931641 0.677734)"/>
</clipPath>
</defs>
</svg>
