<svg width="51" height="51" viewBox="0 0 51 51" fill="none" xmlns="http://www.w3.org/2000/svg">
<g clip-path="url(#clip0_28_950)">
<path d="M40.9479 20.8838H36.1367V17.6416C36.1367 16.8326 35.4809 16.1768 34.6719 16.1768H1.72266C0.913672 16.1768 0.257812 16.8326 0.257812 17.6416V44.3147C0.257812 45.1237 0.913672 45.7796 1.72266 45.7796H6.71094C8.30508 52.018 17.1088 52.0138 18.7005 45.7796H31.815C33.4092 52.018 42.2129 52.0138 43.8046 45.7796H48.793C49.602 45.7796 50.2578 45.1237 50.2578 44.3147V30.1937C50.2578 25.0602 46.0813 20.8838 40.9479 20.8838ZM12.7058 47.5569C10.918 47.5569 9.46357 46.1024 9.46357 44.3147C9.6416 40.0136 15.7706 40.0148 15.948 44.3147C15.948 46.1024 14.4935 47.5569 12.7058 47.5569ZM33.207 40.2088C32.5444 40.9508 32.0587 41.8531 31.815 42.8498H18.7005C17.1063 36.6115 8.30264 36.6157 6.71094 42.8498H3.1875V19.1063H33.207V40.2088ZM37.8099 47.5569C36.0221 47.5569 34.5677 46.1024 34.5677 44.3147C34.7457 40.0136 40.8747 40.0148 41.0521 44.3147C41.0521 46.1024 39.5977 47.5569 37.8099 47.5569ZM47.3281 42.8499H43.8063C43.1469 40.1515 40.7086 38.1429 37.81 38.1429H36.1367V23.8135H39.4831V33.3317C39.4831 34.1407 40.139 34.7966 40.9479 34.7966H47.3281V42.8499ZM47.3281 31.8668H42.4128V23.9831C45.2271 24.6469 47.3281 27.1796 47.3281 30.1937V31.8668Z" fill="#244D4D"/>
<path d="M36.2406 12.8306H40.1631C42.1067 12.7531 42.1052 9.97754 40.1631 9.90088H37.9698L38.266 8.12353H40.1631C42.1067 8.04609 42.1052 5.27051 40.1631 5.19385H38.7542L39.0504 3.4165H41.7321C43.6756 3.33906 43.6742 0.563477 41.7321 0.486816H37.8095C37.0934 0.486816 36.4823 1.00449 36.3646 1.71084L34.7957 11.1249C34.6468 12.018 35.3367 12.8306 36.2406 12.8306Z" fill="#222222"/>
<path d="M26.8269 12.8306H30.7495C32.693 12.7531 32.6916 9.97754 30.7495 9.90088H28.5561L28.8523 8.12353H30.7495C32.693 8.04609 32.6916 5.27051 30.7495 5.19385H29.3407L29.637 3.4165H32.3185C34.2621 3.33906 34.2606 0.563477 32.3185 0.486816H28.3961C27.6799 0.486816 27.0688 1.00449 26.9511 1.71084L25.3821 11.1249C25.2333 12.018 25.9231 12.8306 26.8269 12.8306Z" fill="#244D4D"/>
<path d="M15.6028 12.8106C16.7401 13.0002 17.2205 12.0147 17.2885 11.6065L17.5288 10.1653L20.4126 12.5035C21.0792 13.0438 21.9953 12.8776 22.4731 12.2882C22.9827 11.6598 22.8862 10.7373 22.2578 10.2278L20.6297 8.90801H21.9886C22.7046 8.90801 23.3158 8.39033 23.4335 7.68408L24.3491 2.19258C24.4979 1.29941 23.8081 0.486816 22.9041 0.486816H17.4126C16.6965 0.486816 16.0854 1.00449 15.9677 1.71084L15.0586 7.16494C15.0582 7.16689 15.0581 7.16895 15.0577 7.1709C15.0569 7.1748 15.0564 7.17871 15.0557 7.18262C15.0525 7.20049 15.0493 7.21846 15.0467 7.23652L14.3986 11.1249C14.2656 11.9229 14.8047 12.6776 15.6028 12.8106ZM18.6536 3.4165H21.1748L20.7478 5.97832H18.2265L18.6536 3.4165Z" fill="#244D4D"/>
<path d="M6.97331 12.8105C8.11062 13.0001 8.59099 12.0145 8.65905 11.6064L9.10876 8.90801H11.1366C13.0801 8.83057 13.0787 6.05498 11.1366 5.97832H9.59704L10.024 3.4165H12.7056C14.6492 3.33906 14.6477 0.563477 12.7056 0.486816H8.78308C8.06696 0.486816 7.45583 1.00449 7.33815 1.71084L5.76921 11.1249C5.6361 11.9228 6.17526 12.6775 6.97331 12.8105Z" fill="#244D4D"/>
</g>
<defs>
<clipPath id="clip0_28_950">
<rect width="50" height="50" fill="white" transform="translate(0.257812 0.47168)"/>
</clipPath>
</defs>
</svg>
