<svg width="25" height="25" viewBox="0 0 25 25" fill="none" xmlns="http://www.w3.org/2000/svg">
<g clip-path="url(#clip0_53_782)">
<path d="M2.92345 13.4533H22.94C23.765 13.4533 24.4338 12.7846 24.4338 11.9596C24.4338 11.1346 23.765 10.4658 22.94 10.4658H2.92345C2.09845 10.4658 1.42969 11.1346 1.42969 11.9596C1.42964 12.7846 2.09845 13.4533 2.92345 13.4533Z" fill="#666666"/>
<path d="M14.4254 7.24414C13.9894 7.24414 13.6348 7.5988 13.6348 8.03478V9.0598H19.7538V8.03478C19.7538 7.5988 19.3991 7.24414 18.9631 7.24414H14.4254Z" fill="#666666"/>
<path d="M4.70266 8.03453C4.70266 6.82314 5.68816 5.83764 6.89955 5.83764H11.4373C12.0138 5.83764 12.5388 6.06114 12.9311 6.42564C13.3233 6.06114 13.8483 5.83764 14.4248 5.83764H18.9626C20.1739 5.83764 21.1594 6.82314 21.1594 8.03453V9.05955H23.4417V4.21642C23.4417 3.39142 22.7729 2.72266 21.948 2.72266H3.91418C3.08918 2.72266 2.42041 3.39142 2.42041 4.21642V9.05955H4.70266V8.03453Z" fill="#666666"/>
<path d="M6.90002 7.24414C6.46403 7.24414 6.10938 7.5988 6.10938 8.03478V9.0598H12.2284V8.03478C12.2284 7.5988 11.8737 7.24414 11.4377 7.24414H6.90002Z" fill="#666666"/>
<path d="M0.931641 14.8594V21.3289H2.33789V18.765H23.5254V21.3289H24.9316V14.8594H0.931641Z" fill="#666666"/>
</g>
<defs>
<clipPath id="clip0_53_782">
<rect width="24" height="24" fill="white" transform="translate(0.931641 0.0263672)"/>
</clipPath>
</defs>
</svg>
