<svg width="25" height="25" viewBox="0 0 25 25" fill="none" xmlns="http://www.w3.org/2000/svg">
<g clip-path="url(#clip0_53_760)">
<path d="M20.5527 10.2502C20.8336 10.2502 21.0613 10.0225 21.0613 9.7416V8.11014C21.0613 7.82925 20.8336 7.60156 20.5527 7.60156L19.8289 7.60597L17.4536 10.2502H20.5527Z" fill="#666666"/>
<path d="M5.3079 10.2501H8.43141L6.01497 7.60156H5.3079C5.02701 7.60156 4.79932 7.82925 4.79932 8.11015V9.74147C4.79932 10.0224 5.02701 10.2501 5.3079 10.2501Z" fill="#666666"/>
<path d="M13.2222 12.8728L17.9354 7.60156H7.92578L12.7164 12.8748C12.8522 13.0243 13.0876 13.0233 13.2222 12.8728Z" fill="#666666"/>
<path d="M14.5492 20.2907H13.6736V14.3721C13.4636 14.4934 13.2236 14.5596 12.9761 14.5606C12.9742 14.5606 12.9723 14.5606 12.9705 14.5606C12.7211 14.5606 12.479 14.4943 12.2673 14.3721V20.2907H11.3121C10.9237 20.2907 10.6089 20.6056 10.6089 20.9939C10.6089 21.3823 10.9237 21.6971 11.3121 21.6971H14.5493C14.9376 21.6971 15.2525 21.3823 15.2525 20.9939C15.2525 20.6056 14.9376 20.2907 14.5492 20.2907Z" fill="#666666"/>
<path d="M6.86133 12.2063H2.33799V3.87114C2.33799 3.4828 2.02316 3.16797 1.63482 3.16797C1.24648 3.16797 0.931641 3.4828 0.931641 3.87114V21.0501C0.931641 21.4384 1.24648 21.7532 1.63482 21.7532C2.02316 21.7532 2.33799 21.4384 2.33799 21.0501V15.7977H7.45069V21.0501C7.45069 21.4384 7.76552 21.7532 8.15387 21.7532C8.54221 21.7532 8.85704 21.4384 8.85704 21.0501V14.202C8.85704 13.1015 7.96176 12.2063 6.86133 12.2063Z" fill="#666666"/>
<path d="M24.2283 3.16797C23.8399 3.16797 23.5251 3.4828 23.5251 3.87114V12.2063H19.1065C18.0061 12.2063 17.1108 13.1016 17.1108 14.202V21.0501C17.1108 21.4384 17.4257 21.7532 17.814 21.7532C18.2024 21.7532 18.5172 21.4384 18.5172 21.0501V15.7966H23.5251V21.0501C23.5251 21.4384 23.84 21.7532 24.2283 21.7532C24.6167 21.7532 24.9315 21.4384 24.9315 21.0501V3.87114C24.9314 3.4828 24.6167 3.16797 24.2283 3.16797Z" fill="#666666"/>
</g>
<defs>
<clipPath id="clip0_53_760">
<rect width="24" height="24" fill="white" transform="translate(0.931641 0.460938)"/>
</clipPath>
</defs>
</svg>
