<svg width="25" height="25" viewBox="0 0 25 25" fill="none" xmlns="http://www.w3.org/2000/svg">
<g clip-path="url(#clip0_53_736)">
<path d="M5.38477 11.9893H11.5254C12.0652 11.9893 12.5581 12.1934 12.9316 12.5281C13.3051 12.1933 13.798 11.9893 14.3379 11.9893H20.4785V4.44871C20.4785 4.06223 20.1693 3.74062 19.7828 3.73926C19.777 3.73926 20.0227 3.73926 6.08789 3.73926C5.68777 3.73926 5.38477 4.06729 5.38477 4.44871V11.9893Z" fill="#666666"/>
<path d="M13.6348 14.0986V15.7393H20.4785C20.4785 14.7006 20.4785 14.4874 20.4785 13.3955H14.3379C13.9502 13.3955 13.6348 13.7109 13.6348 14.0986Z" fill="#666666"/>
<path d="M22.6588 8.61536C22.2254 8.62886 21.8848 8.99242 21.8848 9.42602C21.8848 9.5373 21.8848 16.8418 21.8848 16.4424C21.8848 16.8307 21.57 17.1455 21.1816 17.1455C20.6195 17.1455 4.14788 17.1455 4.68164 17.1455C4.29333 17.1455 3.97852 16.8307 3.97852 16.4424C3.97852 16.183 3.97852 9.35838 3.97852 9.42602C3.97852 8.99242 3.63788 8.62886 3.20447 8.61536C1.95525 8.57645 0.931641 9.57583 0.931641 10.8174V18.0362C0.931641 19.2011 1.87603 20.1455 3.04102 20.1455H3.97852V20.9225C3.97852 21.3011 4.26947 21.6269 4.64766 21.6447C5.05144 21.6638 5.38477 21.342 5.38477 20.9424V20.1455H20.4785V20.9225C20.4785 21.3011 20.7695 21.6269 21.1477 21.6447C21.5514 21.6638 21.8848 21.342 21.8848 20.9424V20.1455H22.8223C23.9872 20.1455 24.9316 19.2011 24.9316 18.0362V10.857C24.9316 9.559 23.9 8.57669 22.6588 8.61536Z" fill="#666666"/>
<path d="M12.2285 14.0986C12.2285 13.7109 11.9131 13.3955 11.5254 13.3955H5.38477V15.7393H12.2285V14.0986Z" fill="#666666"/>
</g>
<defs>
<clipPath id="clip0_53_736">
<rect width="24" height="24" fill="white" transform="translate(0.931641 0.692383)"/>
</clipPath>
</defs>
</svg>
