<svg width="51" height="51" viewBox="0 0 51 51" fill="none" xmlns="http://www.w3.org/2000/svg">
<g clip-path="url(#clip0_28_962)">
<path d="M47.5795 18.1894C46.9197 16.1464 47.201 13.0797 45.4861 10.7119C43.7578 8.32533 40.7519 7.64701 39.0545 6.4056C37.375 5.17728 35.8125 2.50433 32.9874 1.58245C30.242 0.686556 27.4346 1.90228 25.2578 1.90228C23.0813 1.90228 20.2741 0.686263 17.5282 1.58236C14.7036 2.50404 13.1398 5.17757 11.4614 6.40531C9.76592 7.64525 6.75771 8.32542 5.02969 10.7116C3.31631 13.0775 3.59473 16.1512 2.93613 18.1893C2.30938 20.129 0.257812 22.4571 0.257812 25.4719C0.257812 28.4886 2.30703 30.8077 2.93613 32.7544C3.5959 34.7974 3.31465 37.8641 5.02949 40.232C6.75771 42.6186 9.76357 43.2968 11.4611 44.5383C13.1403 45.7664 14.7031 48.4396 17.5282 49.3614C20.2718 50.2567 23.0836 49.0415 25.2578 49.0415C27.429 49.0415 30.2474 50.2554 32.9874 49.3615C35.8121 48.4398 37.3749 45.7668 39.0542 44.5385C40.7497 43.2986 43.7579 42.6184 45.4859 40.2323C47.1994 37.8662 46.9208 34.7928 47.5795 32.7545C48.2062 30.8147 50.2578 28.4867 50.2578 25.4719C50.2578 22.4554 48.2091 20.137 47.5795 18.1894ZM43.8626 31.5534C43.0936 33.9337 43.295 36.5977 42.3224 37.9409C41.3366 39.3019 38.7469 39.9236 36.7485 41.3853C34.7721 42.8307 33.3868 45.122 31.7757 45.6477C30.2515 46.1452 27.7675 45.1351 25.2579 45.1351C22.73 45.1351 20.2716 46.1473 18.74 45.6477C17.1291 45.122 15.7458 42.8323 13.7672 41.3852C11.7807 39.9324 9.17617 39.2979 8.19326 37.9407C7.22373 36.602 7.41758 33.9196 6.65322 31.5535C5.904 29.2352 4.16406 27.2279 4.16406 25.4719C4.16406 23.7142 5.90244 21.7138 6.65303 19.3905C7.42207 17.0102 7.22061 14.346 8.19326 13.003C9.17842 11.6428 11.7701 11.0191 13.7672 9.55853C15.7499 8.10843 17.1265 5.82259 18.7398 5.29613C20.2628 4.79925 22.7549 5.80872 25.2577 5.80872C27.7902 5.80872 30.2425 4.79583 31.7756 5.29613C33.3863 5.82171 34.7708 8.11234 36.7485 9.55863C38.7348 11.0115 41.3395 11.6459 42.3224 13.0031C43.2921 14.342 43.0972 17.0217 43.8624 19.3903V19.3904C44.6116 21.7086 46.3516 23.716 46.3516 25.4719C46.3516 27.2296 44.6132 29.23 43.8626 31.5534ZM34.2562 19.2029C35.0189 19.9657 35.0189 21.2023 34.2562 21.965L24.4802 31.741C23.7174 32.5037 22.4807 32.5036 21.718 31.741L16.2596 26.2826C15.4968 25.5198 15.4967 24.2831 16.2595 23.5204C17.0223 22.7577 18.2591 22.7577 19.0216 23.5204L23.099 27.5978L31.4938 19.203C32.2566 18.4402 33.4934 18.4402 34.2562 19.2029Z" fill="#244D4D"/>
</g>
<defs>
<clipPath id="clip0_28_962">
<rect width="50" height="50" fill="white" transform="translate(0.257812 0.47168)"/>
</clipPath>
</defs>
</svg>
