<svg width="25" height="25" viewBox="0 0 25 25" fill="none" xmlns="http://www.w3.org/2000/svg">
<g clip-path="url(#clip0_53_747)">
<path d="M0.937012 24.6926H10.823V19.0234H0.937012V24.6926ZM3.09917 20.4915H8.70767V21.8971H3.09917V20.4915Z" fill="#666666"/>
<path d="M0.937012 17.6175H10.823V12.042H0.937012V17.6175ZM3.09917 13.5376H8.70767V14.9432H3.09917V13.5376Z" fill="#666666"/>
<path d="M12.229 24.6923H24.9262V12.042H12.229V24.6923ZM20.6626 13.5376H22.0682V14.9779H20.6626V13.5376ZM17.8514 13.5376H19.257V14.9779H17.8514V13.5376ZM15.0402 13.5376H16.4458V14.9779H15.0402V13.5376ZM15.0402 16.2353H22.0682V21.8811H15.0402V16.2353Z" fill="#666666"/>
<path d="M20.6626 3.9329V0.692383H16.4458V3.93524L12.229 6.74638V9.2309H24.9262V6.74404L20.6626 3.9329Z" fill="#666666"/>
</g>
<defs>
<clipPath id="clip0_53_747">
<rect width="24" height="24" fill="white" transform="translate(0.931641 0.692383)"/>
</clipPath>
</defs>
</svg>
