<svg width="51" height="51" viewBox="0 0 51 51" fill="none" xmlns="http://www.w3.org/2000/svg">
<g clip-path="url(#clip0_28_265)">
<path d="M46.4968 14.0379L46.4952 13.999C46.4735 13.5188 46.459 13.0107 46.4502 12.4453C46.4094 9.68844 44.2179 7.40802 41.4606 7.25391C35.7119 6.93309 31.2647 5.05855 27.4649 1.35488L27.4325 1.32398C26.1931 0.187581 24.3235 0.187581 23.0837 1.32398L23.0513 1.35488C19.2515 5.05855 14.8043 6.93309 9.05562 7.25429C6.29874 7.40802 4.10682 9.68844 4.06601 12.4457C4.05761 13.0072 4.04274 13.5153 4.02099 13.999L4.0187 14.0894C3.90693 19.9515 3.76808 27.2471 6.20872 33.869C7.55072 37.5105 9.58319 40.6759 12.2493 43.2779C15.2858 46.2411 19.263 48.5937 24.0702 50.2698C24.2266 50.3244 24.3891 50.3686 24.5547 50.4018C24.7881 50.4484 25.0231 50.4716 25.2581 50.4716C25.4931 50.4716 25.7285 50.4484 25.9615 50.4018C26.1271 50.3686 26.2908 50.324 26.4479 50.2691C31.2495 48.5899 35.2225 46.2362 38.2563 43.2733C40.9212 40.6706 42.9537 37.5044 44.2968 33.8621C46.7466 27.2204 46.6082 19.911 46.4968 14.0379ZM41.5442 32.847C38.97 39.8264 33.7153 44.6195 25.4797 47.4996C25.4504 47.5095 25.4191 47.5183 25.3867 47.5248C25.3016 47.5416 25.215 47.5416 25.1288 47.5244C25.0968 47.5179 25.0655 47.5095 25.0365 47.4996C16.7922 44.6249 11.534 39.8344 8.96178 32.8547C6.71225 26.7508 6.83967 20.0537 6.9522 14.1455L6.95296 14.1127C6.97585 13.605 6.99111 13.0732 6.9995 12.4888C7.01781 11.2647 7.99285 10.2519 9.21927 10.1836C12.4724 10.002 15.3304 9.37335 17.9564 8.26175C20.579 7.15167 22.9083 5.58689 25.0765 3.47813C25.1868 3.38505 25.3298 3.38467 25.4397 3.47813C27.6083 5.58689 29.9376 7.15167 32.5598 8.26175C35.1858 9.37335 38.0438 10.002 41.2973 10.1836C42.5238 10.2519 43.4988 11.2647 43.5167 12.4892C43.5255 13.0766 43.5408 13.6084 43.5637 14.1127C43.6758 20.0278 43.8002 26.7302 41.5442 32.847Z" fill="#244D4D"/>
<path d="M25.2571 13.0117C18.3861 13.0117 12.7964 18.6018 12.7964 25.4724C12.7964 32.3435 18.3861 37.9335 25.2571 37.9335C32.1277 37.9335 37.7178 32.3435 37.7178 25.4724C37.7178 18.6018 32.1277 13.0117 25.2571 13.0117ZM25.2571 34.9993C20.0039 34.9993 15.7303 30.7256 15.7303 25.4724C15.7303 20.2192 20.0039 15.9456 25.2571 15.9456C30.5099 15.9456 34.7835 20.2192 34.7835 25.4724C34.7835 30.7256 30.5099 34.9993 25.2571 34.9993Z" fill="#244D4D"/>
<path d="M28.8384 21.6038L23.0507 27.3915L21.4798 25.8206C20.9069 25.2476 19.978 25.2476 19.405 25.8206C18.8324 26.3936 18.8324 27.3225 19.405 27.895L22.0135 30.5035C22.3 30.79 22.6754 30.9331 23.0507 30.9331C23.4261 30.9331 23.8015 30.79 24.0879 30.5035L30.9132 23.6783C31.4858 23.1053 31.4858 22.1764 30.9132 21.6038C30.3402 21.0305 29.4114 21.0305 28.8384 21.6038Z" fill="#244D4D"/>
</g>
<defs>
<clipPath id="clip0_28_265">
<rect width="50" height="50" fill="white" transform="translate(0.257812 0.47168)"/>
</clipPath>
</defs>
</svg>
